<?xml version="1.0" encoding="utf-8"?>
<svg viewBox="9.825 17.068 180.349 90.864" xmlns="http://www.w3.org/2000/svg">
  <g transform="matrix(1, 0, 0, 1, 4.648599, 0)">
    <g transform="matrix(1, 0, 0, 1, -0.692513, 0)">
      <path d="M 45.419 70.868 C 41.719 70.868 38.219 69.668 35.219 67.568 C 32.719 68.768 30.019 69.368 27.219 69.368 C 20.819 69.368 15.519 66.168 13.119 61.068 C 12.719 60.968 12.319 60.868 11.919 60.768 C 8.819 59.968 6.619 56.768 6.019 52.568 C 5.319 47.568 7.019 41.068 12.319 37.468 C 13.019 32.968 15.019 29.568 18.019 27.868 C 19.519 26.968 21.619 26.368 24.119 26.168 C 24.619 23.668 25.619 21.968 27.419 20.568 C 30.519 18.168 33.219 17.968 35.619 19.868 C 36.619 19.168 37.719 18.568 39.019 18.168 C 41.119 17.468 42.919 17.068 44.519 17.068 C 46.619 17.068 48.419 17.668 50.019 18.868 C 52.519 17.168 55.519 16.868 59.019 18.068 C 59.219 18.168 59.019 18.068 59.219 18.168 C 60.819 17.968 62.519 18.168 64.419 18.568 C 66.319 19.068 67.719 20.168 68.619 21.968 C 70.619 21.868 72.519 22.768 75.119 24.868 C 76.819 26.268 78.319 28.168 79.319 30.268 C 85.219 31.568 89.219 37.268 89.919 42.168 C 90.019 43.068 90.019 43.868 89.719 44.668 C 94.619 49.668 94.919 56.268 93.119 60.668 C 91.419 64.768 87.919 67.068 83.319 67.068 C 79.519 67.068 75.419 65.368 72.919 62.768 C 72.619 63.068 72.419 63.268 72.219 63.468 C 71.919 63.768 71.619 64.268 71.419 64.568 C 69.519 66.968 67.419 69.768 62.819 69.768 L 62.819 69.768 C 60.619 69.768 58.119 69.068 55.219 67.868 C 54.919 68.168 54.519 68.368 54.219 68.568 C 51.619 70.068 48.519 70.868 45.419 70.868 L 45.419 70.868 Z M 37.119 66.468 C 39.519 67.968 42.419 68.868 45.419 68.868 L 45.419 68.868 C 48.119 68.868 50.719 68.168 52.919 66.968 C 52.119 66.568 51.219 66.068 50.319 65.568 C 45.519 63.068 42.119 62.668 39.719 62.668 C 39.119 64.268 38.219 65.568 37.119 66.468 Z M 56.619 66.368 C 59.019 67.368 61.019 67.868 62.819 67.868 L 62.819 67.868 C 66.419 67.868 68.119 65.668 69.819 63.368 C 70.119 62.968 70.419 62.568 70.719 62.268 C 70.919 61.968 71.319 61.668 71.719 61.268 C 71.319 60.668 71.219 60.168 71.219 59.668 L 71.019 59.568 L 71.019 59.568 C 70.019 59.368 69.719 59.268 69.119 59.068 L 69.019 59.068 C 67.019 61.168 63.819 61.768 59.419 60.968 L 59.419 60.968 L 59.419 60.968 C 58.519 63.368 57.619 65.168 56.619 66.368 Z M 15.419 61.068 C 17.619 64.968 22.019 67.268 27.219 67.268 C 29.419 67.268 31.519 66.868 33.419 66.068 C 32.519 65.168 31.619 64.268 30.819 63.168 L 30.819 63.168 C 29.019 63.168 27.519 62.968 25.919 62.568 C 23.719 61.968 21.619 60.968 19.819 59.468 L 19.819 59.468 L 19.819 59.468 C 18.219 60.368 16.819 60.868 15.419 61.068 Z M 44.519 61.168 C 46.719 61.668 48.919 62.568 51.319 63.768 C 52.519 64.468 53.719 64.968 54.819 65.468 C 55.819 64.368 56.619 62.768 57.419 60.468 C 56.619 60.268 55.919 60.068 55.319 59.868 C 53.419 59.268 52.619 57.568 52.119 55.868 C 48.219 55.968 47.319 57.268 47.019 58.368 C 46.519 59.868 45.619 60.768 44.519 61.168 Z M 33.419 63.068 C 34.019 63.868 34.719 64.468 35.419 65.068 C 36.219 64.568 36.919 63.768 37.519 62.668 C 36.819 62.668 36.219 62.768 35.619 62.868 C 34.819 62.968 34.119 62.968 33.419 63.068 Z M 74.419 61.368 C 76.519 63.568 80.119 64.968 83.419 64.968 C 85.619 64.968 89.519 64.268 91.419 59.768 C 92.919 56.068 92.719 50.668 88.919 46.368 C 87.619 47.968 85.419 48.868 83.419 49.068 L 83.619 49.268 C 86.919 50.268 88.719 51.768 89.319 53.668 C 90.019 56.168 89.919 58.068 88.819 59.468 C 87.819 60.868 85.919 61.468 83.119 61.468 C 81.119 61.468 79.219 61.168 75.219 60.368 L 75.219 60.368 L 75.319 60.368 C 74.819 60.868 74.619 61.168 74.419 61.368 Z M 28.419 52.768 C 29.219 55.968 30.419 58.768 31.919 61.068 C 33.119 61.068 34.219 60.968 35.319 60.868 C 36.219 60.768 37.219 60.668 38.219 60.668 C 38.419 60.168 38.519 59.568 38.619 58.968 C 37.519 57.968 36.619 56.668 35.819 55.268 L 35.819 55.268 C 33.819 54.768 32.119 53.468 30.519 51.368 C 29.919 51.768 29.219 52.268 28.419 52.768 Z M 21.519 58.168 C 23.019 59.268 24.619 60.068 26.419 60.568 C 27.419 60.868 28.519 60.968 29.519 61.068 C 28.319 59.068 27.419 56.668 26.719 54.068 C 25.619 54.868 24.719 55.668 23.819 56.368 C 23.019 56.968 22.219 57.568 21.519 58.168 Z M 40.319 60.668 C 40.519 60.668 40.719 60.668 40.919 60.668 C 40.719 60.568 40.619 60.468 40.419 60.368 C 40.319 60.668 40.319 60.668 40.319 60.668 Z M 76.419 58.768 C 79.219 59.368 81.319 59.568 83.019 59.568 C 85.119 59.568 86.419 59.168 87.019 58.368 C 87.619 57.568 87.719 56.168 87.119 54.368 C 86.819 53.268 85.619 52.368 83.519 51.568 C 83.519 52.068 83.419 52.568 83.219 53.068 C 82.319 55.168 79.619 56.068 77.019 56.968 C 77.019 57.568 76.819 58.168 76.419 58.768 Z M 59.919 59.068 C 62.819 59.568 65.019 59.368 66.519 58.468 C 64.519 57.968 62.419 57.468 60.519 57.068 C 60.319 57.768 60.119 58.468 59.919 59.068 Z M 40.819 58.168 C 41.719 58.868 42.619 59.268 43.419 59.268 L 43.419 59.268 C 43.719 59.268 44.619 59.268 45.119 57.768 C 45.919 55.368 48.119 54.068 51.619 53.868 L 51.619 53.868 L 51.619 53.868 C 51.519 53.868 51.619 53.868 51.419 52.768 C 51.219 51.568 50.919 50.368 50.619 49.168 C 49.219 48.268 47.919 46.968 46.619 45.168 L 46.619 45.268 L 46.619 45.268 C 45.319 49.868 43.819 53.168 41.319 54.568 L 41.319 54.568 C 41.119 55.868 41.019 57.068 40.819 58.168 Z M 14.219 51.568 C 13.619 52.868 13.219 55.068 14.319 58.668 C 14.319 58.768 14.419 58.968 14.419 59.068 C 15.619 59.068 16.819 58.668 18.219 57.868 C 16.719 56.168 15.319 54.068 14.219 51.568 Z M 12.119 40.268 C 8.519 43.468 7.419 48.368 8.019 52.368 C 8.519 55.668 10.119 58.168 12.319 58.868 C 10.719 53.468 12.219 50.668 13.319 49.368 L 13.319 49.368 L 13.319 49.368 C 12.419 46.368 12.019 43.168 12.119 40.268 Z M 54.219 56.068 C 54.619 57.268 55.119 57.868 55.919 58.068 C 56.419 58.268 57.219 58.468 58.019 58.668 C 58.219 58.068 58.419 57.468 58.619 56.668 C 56.919 56.368 55.519 56.168 54.219 56.068 Z M 74.019 58.268 C 74.119 58.268 74.219 58.368 74.319 58.368 C 74.419 58.268 74.519 58.168 74.519 57.968 C 74.419 58.068 74.219 58.168 74.019 58.268 Z M 70.119 57.368 C 70.619 57.468 71.119 57.568 71.619 57.768 C 72.319 56.768 73.719 56.168 75.319 55.668 C 75.219 54.568 74.619 53.568 73.419 52.468 C 72.919 52.068 72.419 51.568 72.019 51.068 C 71.519 52.468 71.219 53.668 71.019 54.668 C 70.819 55.568 70.519 56.468 70.119 57.368 Z M 61.019 54.968 C 63.319 55.468 65.719 56.168 68.119 56.768 C 68.519 56.068 68.819 55.168 69.019 54.168 C 69.219 52.868 69.719 51.368 70.419 49.368 L 68.519 49.168 C 66.819 49.568 64.719 50.068 62.219 50.368 C 62.019 51.168 61.819 51.968 61.519 52.768 C 61.019 54.868 61.519 52.768 61.019 54.968 L 61.019 54.968 L 61.019 54.968 Z M 15.719 49.968 C 16.719 52.668 18.219 54.968 20.019 56.768 C 20.819 56.168 21.519 55.468 22.519 54.768 C 23.619 53.868 25.019 52.968 26.019 51.868 L 26.019 51.868 L 26.119 51.868 C 25.819 50.668 25.719 49.368 25.519 48.068 C 25.219 45.568 24.919 43.268 24.619 41.168 C 23.319 39.168 22.019 38.068 20.619 37.568 C 19.919 38.068 19.519 38.568 19.519 39.068 C 19.419 39.468 19.619 39.868 20.019 40.268 C 23.419 44.368 23.219 47.068 22.519 48.568 C 21.819 49.968 20.419 50.668 19.419 50.668 C 18.819 50.668 18.319 50.468 18.019 50.168 C 17.419 49.668 16.519 49.568 15.719 49.968 Z M 38.419 55.468 C 38.619 55.768 38.819 56.068 39.119 56.368 C 39.119 56.068 39.219 55.768 39.219 55.368 C 39.119 55.368 39.319 55.368 39.219 55.368 C 39.019 55.468 38.519 55.468 38.419 55.468 Z M 73.519 49.668 C 73.819 50.068 74.219 50.468 74.619 50.868 C 76.119 52.168 76.919 53.468 77.219 54.868 L 77.419 54.768 L 77.419 54.768 C 79.219 54.168 81.019 53.368 81.419 52.268 C 81.619 51.868 81.619 51.468 81.419 50.868 C 79.119 50.368 76.319 49.968 73.519 49.668 Z M 53.619 53.968 C 55.119 54.068 56.919 54.268 59.019 54.668 C 59.219 53.968 59.419 53.168 59.619 52.368 C 59.819 51.768 59.919 51.168 60.119 50.568 C 58.719 50.668 57.319 50.768 55.919 50.768 L 55.719 50.768 C 54.719 50.768 53.819 50.668 52.919 50.368 C 53.119 51.068 53.219 51.768 53.319 52.468 C 53.419 52.968 53.519 53.468 53.619 53.968 Z M 37.319 53.468 C 37.719 53.568 38.219 53.568 38.719 53.468 C 38.919 53.468 39.219 53.368 39.419 53.368 L 39.419 53.368 C 39.619 50.968 39.719 48.068 40.219 46.268 C 38.719 46.868 37.319 47.568 36.019 48.268 C 36.119 49.968 36.519 51.768 37.319 53.468 Z M 32.319 50.268 C 33.119 51.268 33.919 52.068 34.819 52.568 C 34.419 51.468 34.219 50.368 34.119 49.168 C 33.419 49.568 32.819 49.868 32.319 50.268 Z M 42.719 45.268 C 41.919 46.668 41.619 49.268 41.419 52.068 C 42.819 50.468 43.819 47.668 44.619 44.668 C 44.019 44.768 43.419 44.968 42.719 45.268 Z M 27.319 45.768 C 27.419 46.468 27.519 47.068 27.619 47.768 C 27.719 48.768 27.919 49.668 28.119 50.568 C 28.619 50.268 29.119 49.868 29.519 49.568 C 28.619 48.468 27.919 47.068 27.319 45.768 Z M 52.219 47.968 C 53.319 48.568 54.519 48.868 55.719 48.868 L 55.819 48.868 C 57.419 48.868 59.019 48.568 60.619 48.368 C 60.619 48.268 60.719 47.868 60.719 47.868 L 60.719 47.868 L 60.719 48.068 C 58.419 47.668 56.819 47.168 55.819 46.468 C 54.119 45.368 54.119 43.368 54.419 41.768 C 52.419 42.168 50.519 42.668 48.719 43.268 C 50.719 44.468 51.619 46.468 52.219 47.968 Z M 26.619 40.568 C 27.419 41.868 28.219 43.268 28.919 44.668 C 29.619 45.968 30.319 47.368 31.119 48.668 C 32.019 48.068 33.019 47.568 33.919 47.068 L 33.919 47.068 C 34.019 44.268 34.919 41.768 36.519 38.768 L 36.519 38.768 L 36.419 38.768 C 34.819 38.468 33.819 37.668 33.319 36.468 C 33.019 35.568 32.619 34.668 32.419 33.868 C 30.119 34.268 27.919 34.668 25.919 35.268 C 26.219 36.668 26.419 38.468 26.619 40.568 Z M 19.019 48.468 C 19.119 48.468 19.319 48.568 19.419 48.568 C 19.819 48.568 20.419 48.268 20.719 47.668 C 21.019 47.068 21.419 45.168 18.419 41.568 C 17.719 40.668 17.419 39.768 17.519 38.768 C 17.619 38.268 17.819 37.868 18.119 37.368 C 17.619 37.468 17.119 37.568 16.519 37.768 C 15.719 38.068 14.919 38.368 14.219 38.768 C 13.919 41.768 14.219 44.968 15.119 48.068 C 16.519 47.468 18.119 47.668 19.219 48.568 L 19.019 48.468 Z M 74.619 47.768 C 75.919 47.968 77.319 48.068 78.519 48.268 C 78.219 48.068 78.019 47.768 77.819 47.568 C 76.919 47.468 75.719 47.568 74.619 47.768 Z M 81.419 47.268 C 83.319 47.468 86.019 46.768 87.219 45.168 C 85.519 43.668 83.419 42.568 80.919 41.668 C 80.619 43.068 80.219 44.268 79.619 45.268 C 79.519 45.468 79.319 45.768 79.319 45.968 C 80.119 46.168 80.819 46.668 81.419 47.268 Z M 63.319 46.568 C 65.019 46.768 66.819 46.968 68.419 47.168 C 68.819 47.068 69.219 46.968 69.619 46.868 L 69.619 46.868 C 68.919 44.968 68.519 42.768 68.319 39.968 C 67.519 39.968 66.619 40.068 65.819 40.068 C 64.919 41.868 64.119 43.968 63.319 46.568 Z M 70.319 39.968 C 70.519 42.568 70.919 44.668 71.619 46.368 C 71.619 46.368 71.619 46.368 71.719 46.368 L 72.119 45.568 C 72.919 43.768 73.719 41.968 74.319 40.268 C 73.019 40.068 71.719 39.968 70.319 39.968 Z M 56.619 41.368 C 55.919 44.168 56.719 44.668 56.919 44.868 C 57.719 45.368 59.219 45.868 61.319 46.268 C 62.019 43.968 62.719 41.968 63.519 40.268 C 61.319 40.568 59.019 40.868 56.619 41.368 Z M 38.919 38.868 C 37.319 41.068 36.319 43.468 36.019 45.868 C 37.719 45.068 39.519 44.268 41.419 43.568 C 42.219 42.568 43.219 42.068 44.519 42.068 C 43.919 40.968 43.319 39.768 42.719 38.368 C 41.319 38.668 40.019 38.868 38.919 38.868 Z M 76.319 40.468 C 75.719 42.168 74.919 44.068 74.119 45.868 C 75.019 45.668 76.019 45.568 76.919 45.568 L 77.419 45.468 L 77.419 45.468 C 77.519 45.068 77.619 44.668 77.919 44.168 C 78.419 43.268 78.819 42.168 79.019 40.968 C 78.219 40.768 77.219 40.568 76.319 40.468 Z M 81.219 39.568 C 83.819 40.368 86.019 41.568 87.919 43.068 C 87.919 42.868 87.919 42.668 87.919 42.468 C 87.319 38.668 84.419 34.268 80.319 32.668 C 81.019 34.968 81.319 37.268 81.219 39.568 L 81.219 39.568 L 81.219 39.568 Z M 47.519 41.568 L 47.519 41.568 C 49.919 40.868 52.419 40.268 55.019 39.668 C 55.619 37.968 56.419 36.068 57.319 34.068 C 56.219 34.368 55.019 34.768 53.919 35.168 C 52.119 35.768 50.319 36.268 48.519 36.868 C 48.319 37.768 48.119 38.568 47.919 39.468 C 47.819 40.168 47.619 40.868 47.519 41.568 L 47.519 41.568 Z M 44.819 37.868 C 45.219 38.668 45.519 39.368 45.819 40.068 C 45.919 39.668 46.019 39.368 46.019 38.968 C 46.119 38.468 46.219 37.968 46.319 37.468 L 46.319 37.468 L 46.319 37.468 C 45.819 37.568 45.319 37.768 44.819 37.868 Z M 59.919 33.368 C 59.719 33.868 59.519 34.268 59.319 34.768 C 58.619 36.368 57.919 37.868 57.319 39.268 C 59.819 38.768 62.219 38.468 64.519 38.268 L 64.419 38.268 C 65.519 36.368 66.919 34.868 67.919 33.668 L 67.919 33.568 C 67.919 32.868 68.019 32.268 68.019 31.568 C 65.519 31.768 62.519 32.568 59.919 33.368 Z M 76.919 38.468 C 77.719 38.568 78.519 38.768 79.319 38.968 C 79.419 36.668 78.919 34.268 78.019 32.068 C 77.419 31.968 76.819 31.968 76.219 32.068 C 77.619 34.068 77.319 36.768 76.919 38.468 Z M 70.219 37.968 C 71.819 37.968 73.419 38.068 74.819 38.268 C 75.719 34.768 74.819 33.368 73.819 32.568 C 72.619 32.968 71.319 33.668 70.119 34.568 C 70.219 35.668 70.219 36.768 70.219 37.968 Z M 68.219 36.368 C 67.819 36.868 67.419 37.368 67.019 37.968 C 67.419 37.968 67.819 37.968 68.219 37.968 C 68.219 37.468 68.219 36.868 68.219 36.368 Z M 22.719 36.368 C 23.319 36.668 23.819 37.068 24.219 37.568 C 24.119 36.968 24.119 36.368 24.019 35.868 C 23.619 36.068 23.219 36.168 22.719 36.368 Z M 34.519 33.568 C 34.719 34.268 35.019 34.968 35.319 35.768 C 35.419 36.068 35.719 36.868 37.919 36.968 C 38.819 35.868 39.819 34.868 40.919 33.968 L 40.719 33.468 C 39.219 33.168 37.019 33.268 34.519 33.568 Z M 41.719 35.868 C 41.419 36.168 41.119 36.468 40.819 36.668 C 41.219 36.568 41.519 36.568 41.919 36.468 C 41.719 35.868 41.819 36.068 41.719 35.868 Z M 23.819 28.268 C 21.719 28.468 20.119 28.868 18.919 29.668 C 16.819 30.868 15.319 33.268 14.519 36.368 C 14.919 36.168 15.419 36.068 15.819 35.868 C 17.419 35.368 18.819 35.268 20.119 35.468 L 20.119 35.468 L 20.219 35.468 C 21.219 34.868 21.919 34.368 23.919 33.868 L 23.919 33.868 L 23.919 33.868 C 23.819 31.568 23.719 29.768 23.819 28.268 Z M 43.319 34.468 C 43.519 34.968 43.719 35.568 44.019 36.068 C 44.919 35.868 45.919 35.568 47.019 35.268 C 48.119 30.968 49.419 26.568 51.519 23.268 C 51.019 22.568 50.519 21.968 50.019 21.468 C 49.119 22.268 48.419 23.168 47.619 24.068 C 46.419 25.568 45.219 26.968 43.619 27.668 C 42.919 27.968 41.919 28.268 40.819 28.368 C 41.219 29.368 41.719 30.468 42.119 31.468 C 42.719 31.668 43.519 31.968 43.819 32.768 C 43.919 33.368 43.719 33.968 43.319 34.468 Z M 52.619 25.168 C 51.119 27.768 50.019 31.168 49.119 34.568 C 50.519 34.168 51.919 33.668 53.319 33.268 C 55.019 32.768 56.719 32.168 58.419 31.668 C 59.219 29.968 59.919 28.168 60.419 26.568 C 59.819 26.868 59.419 27.168 59.019 27.368 C 58.019 27.968 57.319 28.368 56.419 28.368 C 55.019 28.368 53.919 27.268 52.619 25.168 Z M 25.919 28.068 C 25.819 29.368 25.819 31.068 25.919 33.168 C 27.819 32.668 29.919 32.168 32.019 31.868 C 31.719 30.568 31.619 29.368 31.619 28.268 C 29.719 28.168 27.719 28.068 25.919 28.068 Z M 70.119 31.468 C 70.119 31.668 70.119 31.968 70.119 32.168 C 70.419 31.968 70.819 31.768 71.119 31.568 C 70.819 31.468 70.519 31.468 70.119 31.468 Z M 33.619 28.368 C 33.619 29.368 33.819 30.368 34.019 31.568 C 36.219 31.268 38.319 31.168 39.919 31.268 C 39.519 30.368 39.219 29.468 38.819 28.568 C 37.119 28.668 35.419 28.568 33.619 28.368 Z M 62.719 25.568 C 62.419 27.268 61.719 29.068 60.919 30.968 C 63.919 30.168 66.219 29.668 68.019 29.468 C 67.919 27.668 67.819 25.668 67.319 24.068 C 66.519 24.268 65.519 24.568 64.319 24.968 C 63.719 25.268 63.319 25.368 62.719 25.568 Z M 70.119 29.468 C 70.619 29.468 71.119 29.568 71.619 29.668 C 72.619 29.868 73.419 30.168 74.119 30.468 L 74.119 30.468 L 74.119 30.468 C 75.019 30.268 75.919 30.168 76.919 30.068 C 76.119 28.668 75.019 27.468 73.819 26.468 C 71.719 24.768 70.519 24.168 69.419 24.068 C 69.819 25.668 70.019 27.568 70.119 29.468 L 70.119 29.468 Z M 33.719 26.468 C 35.219 26.568 36.619 26.668 37.819 26.668 C 37.019 24.968 36.219 23.668 35.419 22.668 C 34.519 23.668 33.919 24.868 33.719 26.468 Z M 37.019 21.268 C 38.019 22.468 39.019 24.168 40.019 26.468 C 41.219 26.368 42.119 26.168 42.819 25.868 C 43.919 25.368 45.019 24.068 46.119 22.768 C 46.819 21.868 47.619 20.968 48.419 20.168 C 47.219 19.468 45.919 19.068 44.519 19.068 C 43.119 19.068 41.619 19.368 39.719 20.068 C 38.619 20.368 37.719 20.868 37.019 21.268 Z M 53.819 23.368 C 54.619 24.668 55.719 26.368 56.319 26.368 C 56.619 26.368 57.219 26.068 57.919 25.668 C 58.719 25.268 59.619 24.668 60.819 24.168 C 61.019 21.568 59.919 20.668 58.819 20.168 C 57.019 20.468 55.319 21.568 53.819 23.368 Z M 31.619 26.268 L 31.619 26.268 C 31.919 24.268 32.719 22.568 34.019 21.168 C 32.419 20.068 30.719 20.368 28.619 22.068 C 27.319 23.068 26.619 24.268 26.219 26.068 C 27.919 26.068 29.919 26.168 31.619 26.268 L 31.619 26.268 Z M 62.019 20.068 C 62.619 20.968 62.919 22.068 62.919 23.368 L 63.019 23.368 L 63.019 23.368 C 63.019 23.368 63.019 23.368 63.719 23.168 C 64.719 22.768 65.619 22.468 66.519 22.268 C 65.919 21.368 65.019 20.768 63.919 20.468 C 63.219 20.268 62.619 20.168 62.019 20.068 Z M 52.719 21.468 L 52.719 21.468 C 53.619 20.668 54.419 19.868 55.419 19.368 C 54.019 19.268 52.719 19.568 51.619 20.268 C 51.919 20.668 52.319 21.068 52.719 21.468 L 52.719 21.468 Z" style="fill: rgb(33, 37, 41);"/>
      <path d="M 85.938 82.922 L 81.25 82.922 C 81.25 79.471 78.452 76.672 75 76.672 C 73.898 76.685 72.822 76.986 71.875 77.547 L 71.875 76.672 C 71.875 71.861 66.667 68.855 62.5 71.26 C 60.566 72.377 59.375 74.439 59.375 76.672 L 59.375 82.922 L 40.625 82.922 L 40.625 76.672 C 40.625 71.861 35.417 68.855 31.25 71.26 C 29.316 72.377 28.125 74.439 28.125 76.672 L 28.125 77.547 C 27.178 76.986 26.1 76.685 25 76.672 C 21.548 76.672 18.75 79.471 18.75 82.922 L 14.063 82.922 C 13.2 82.922 12.5 83.622 12.5 84.485 L 12.5 93.86 C 12.5 94.724 13.2 95.422 14.063 95.422 L 18.75 95.422 C 18.75 98.874 21.548 101.672 25 101.672 C 26.1 101.661 27.178 101.36 28.125 100.797 L 28.125 101.672 C 28.125 106.485 33.333 109.491 37.5 107.085 C 39.433 105.969 40.625 103.905 40.625 101.672 L 40.625 95.422 L 59.375 95.422 L 59.375 101.672 C 59.375 106.485 64.583 109.491 68.75 107.085 C 70.683 105.969 71.875 103.905 71.875 101.672 L 71.875 100.797 C 72.822 101.36 73.898 101.661 75 101.672 C 78.452 101.672 81.25 98.874 81.25 95.422 L 85.938 95.422 C 86.8 95.422 87.5 94.724 87.5 93.86 L 87.5 84.485 C 87.5 83.622 86.8 82.922 85.938 82.922 Z M 15.625 92.297 L 15.625 86.047 L 18.75 86.047 L 18.75 92.297 Z M 25 98.547 C 23.273 98.547 21.875 97.149 21.875 95.422 L 21.875 82.922 C 21.875 80.517 24.48 79.013 26.563 80.216 C 27.53 80.775 28.125 81.807 28.125 82.922 L 28.125 95.422 C 28.125 97.149 26.725 98.547 25 98.547 Z M 37.5 101.672 C 37.5 104.078 34.895 105.582 32.813 104.378 C 31.845 103.821 31.25 102.789 31.25 101.672 L 31.25 76.672 C 31.25 74.267 33.855 72.763 35.938 73.966 C 36.905 74.525 37.5 75.557 37.5 76.672 L 37.5 101.672 Z M 40.625 92.297 L 40.625 86.047 L 59.375 86.047 L 59.375 92.297 Z M 68.75 101.672 C 68.75 104.078 66.145 105.582 64.063 104.378 C 63.095 103.821 62.5 102.789 62.5 101.672 L 62.5 76.672 C 62.5 74.267 65.105 72.763 67.188 73.966 C 68.155 74.525 68.75 75.557 68.75 76.672 L 68.75 101.672 Z M 78.125 95.422 C 78.125 97.828 75.52 99.332 73.438 98.128 C 72.47 97.571 71.875 96.539 71.875 95.422 L 71.875 82.922 C 71.875 80.517 74.48 79.013 76.563 80.216 C 77.53 80.775 78.125 81.807 78.125 82.922 L 78.125 95.422 Z M 84.375 92.297 L 81.25 92.297 L 81.25 86.047 L 84.375 86.047 Z" style="fill: rgb(33, 37, 41);"/>
    </g>
    <path d="M 65.516 79.536 L 65.666 58.906 C 65.879 58.186 66.719 57.826 68.186 57.826 C 69.532 57.826 70.772 58.006 71.906 58.366 C 73.039 58.726 73.989 59.333 74.756 60.186 C 75.529 61.033 75.916 62.053 75.916 63.246 C 75.916 64.186 75.686 65.093 75.226 65.966 C 74.766 66.846 74.206 67.413 73.546 67.666 C 74.792 67.846 75.799 68.599 76.566 69.926 C 77.326 71.253 77.706 72.826 77.706 74.646 C 77.706 75.873 77.216 76.939 76.236 77.846 C 75.262 78.759 74.126 79.416 72.826 79.816 C 71.526 80.216 70.212 80.416 68.886 80.416 C 67.266 80.416 66.142 80.123 65.516 79.536 Z M 67.916 69.276 C 67.916 70.629 67.896 73.336 67.856 77.396 C 68.442 78.063 69.196 78.396 70.116 78.396 C 71.329 78.396 72.502 77.893 73.636 76.886 C 74.769 75.879 75.336 74.799 75.336 73.646 C 75.336 72.219 74.856 71.106 73.896 70.306 C 72.936 69.506 71.706 69.106 70.206 69.106 C 69.206 69.106 68.442 69.163 67.916 69.276 Z M 67.856 67.116 L 69.676 67.086 C 70.929 67.086 71.892 66.719 72.566 65.986 C 73.239 65.253 73.576 64.379 73.576 63.366 C 73.576 62.326 73.232 61.433 72.546 60.686 C 71.866 59.933 70.919 59.556 69.706 59.556 C 69.159 59.556 68.516 59.673 67.776 59.906 C 67.816 61.099 67.839 62.573 67.846 64.326 C 67.852 66.086 67.856 67.016 67.856 67.116 ZM 89.744 69.136 L 88.454 69.046 C 88.041 67.953 87.348 67.406 86.374 67.406 C 85.948 67.406 85.494 67.503 85.014 67.696 C 84.534 67.896 84.138 68.096 83.824 68.296 C 83.511 68.503 83.101 68.803 82.594 69.196 C 82.594 69.469 82.591 70.356 82.584 71.856 C 82.571 73.363 82.581 75.033 82.614 76.866 C 82.641 78.706 82.674 79.693 82.714 79.826 C 82.534 80.413 82.191 80.706 81.684 80.706 C 81.338 80.706 81.001 80.566 80.674 80.286 C 80.354 79.999 80.154 79.653 80.074 79.246 C 80.448 72.973 80.781 68.236 81.074 65.036 L 82.394 65.326 L 82.474 67.286 C 83.841 66.153 85.014 65.586 85.994 65.586 C 87.068 65.586 87.971 65.833 88.704 66.326 C 89.438 66.813 89.804 67.523 89.804 68.456 C 89.804 68.749 89.784 68.976 89.744 69.136 ZM 92.032 67.636 L 91.442 66.146 C 91.948 65.639 92.592 65.233 93.372 64.926 C 94.158 64.626 94.932 64.476 95.692 64.476 C 98.992 64.476 100.642 67.326 100.642 73.026 C 100.642 73.813 100.598 74.966 100.512 76.486 C 100.425 78.013 100.382 79.156 100.382 79.916 C 100.222 80.523 99.918 80.826 99.472 80.826 C 99.118 80.826 98.795 80.649 98.502 80.296 C 98.208 79.943 98.062 79.553 98.062 79.126 C 98.062 78.986 98.072 78.889 98.092 78.836 C 96.878 80.003 95.588 80.586 94.222 80.586 C 93.188 80.586 92.285 80.213 91.512 79.466 C 90.745 78.713 90.362 77.799 90.362 76.726 C 90.362 74.906 91.068 73.263 92.482 71.796 C 93.895 70.336 95.502 69.606 97.302 69.606 C 97.382 69.606 97.458 69.609 97.532 69.616 C 97.612 69.629 97.705 69.646 97.812 69.666 C 97.918 69.679 98.002 69.686 98.062 69.686 C 97.908 67.406 97.002 66.266 95.342 66.266 C 94.362 66.266 93.258 66.723 92.032 67.636 Z M 98.152 76.806 C 98.192 75.439 98.212 74.406 98.212 73.706 C 98.212 73.119 98.192 72.299 98.152 71.246 L 97.912 71.246 C 96.525 71.266 95.262 71.783 94.122 72.796 C 92.982 73.809 92.412 75.039 92.412 76.486 C 92.412 77.113 92.602 77.613 92.982 77.986 C 93.362 78.353 93.825 78.536 94.372 78.536 C 95.232 78.536 96.492 77.959 98.152 76.806 ZM 103.661 65.236 L 105.001 65.526 C 105.161 67.133 105.298 69.649 105.411 73.076 C 105.531 76.503 105.611 78.626 105.651 79.446 C 105.471 80.053 105.128 80.356 104.621 80.356 C 104.275 80.356 103.938 80.213 103.611 79.926 C 103.291 79.646 103.091 79.299 103.011 78.886 C 103.051 78.086 103.131 76.003 103.251 72.636 C 103.365 69.269 103.501 66.803 103.661 65.236 Z M 104.071 59.996 C 104.598 59.996 105.035 60.226 105.381 60.686 C 105.735 61.139 105.911 61.659 105.911 62.246 C 105.911 62.679 105.808 63.026 105.601 63.286 C 105.401 63.553 105.125 63.686 104.771 63.686 C 104.225 63.686 103.795 63.459 103.481 63.006 C 103.168 62.559 103.011 62.033 103.011 61.426 C 103.011 60.999 103.105 60.653 103.291 60.386 C 103.478 60.126 103.738 59.996 104.071 59.996 ZM 110.303 68.576 L 110.423 80.176 C 110.13 80.336 109.78 80.416 109.373 80.416 C 109.06 80.416 108.707 80.366 108.313 80.266 C 108.373 79.033 108.413 76.613 108.433 73.006 C 108.453 69.393 108.53 66.716 108.663 64.976 L 109.983 65.266 L 110.073 66.906 C 111.107 65.813 112.297 65.266 113.643 65.266 C 114.33 65.266 114.877 65.316 115.283 65.416 C 115.697 65.509 116.093 65.746 116.473 66.126 C 116.853 66.513 117.14 67.016 117.333 67.636 C 117.533 68.263 117.71 69.156 117.863 70.316 C 118.023 71.483 118.137 72.843 118.203 74.396 C 118.27 75.949 118.313 77.906 118.333 80.266 C 118.213 80.306 117.99 80.326 117.663 80.326 C 116.957 80.326 116.41 80.239 116.023 80.066 C 115.943 79.753 115.903 79.233 115.903 78.506 C 115.903 78.139 115.917 77.443 115.943 76.416 C 115.977 75.389 115.993 74.593 115.993 74.026 C 115.993 73.086 115.957 72.266 115.883 71.566 C 115.817 70.859 115.69 70.166 115.503 69.486 C 115.323 68.799 115.04 68.273 114.653 67.906 C 114.273 67.533 113.8 67.346 113.233 67.346 C 112.593 67.346 112.09 67.396 111.723 67.496 C 111.363 67.589 111.11 67.706 110.963 67.846 C 110.817 67.979 110.597 68.223 110.303 68.576 Z" transform="matrix(1, 0, 0, 1, 47.93215560913086, -15.5703125)" style="fill: rgb(33, 37, 41); white-space: pre;"/>
    <path d="M 59.173 102.976 L 59.473 104.296 C 58.706 104.296 57.323 104.329 55.323 104.396 C 53.323 104.469 51.873 104.506 50.973 104.506 C 49.526 104.506 48.539 104.436 48.013 104.296 C 48.206 102.149 48.323 98.556 48.363 93.516 C 48.403 88.476 48.529 84.959 48.743 82.966 C 49.409 83.026 51.173 83.076 54.033 83.116 C 56.893 83.156 58.763 83.243 59.643 83.376 L 59.963 84.696 C 59.089 84.849 57.333 85.036 54.693 85.256 C 52.059 85.469 50.673 85.586 50.533 85.606 C 50.553 86.053 50.596 86.969 50.663 88.356 C 50.736 89.743 50.779 90.886 50.793 91.786 C 51.459 91.866 52.673 91.979 54.433 92.126 C 56.186 92.273 57.299 92.366 57.773 92.406 L 58.063 93.746 C 53.943 94.119 51.529 94.316 50.823 94.336 C 50.823 95.196 50.809 96.499 50.783 98.246 C 50.756 99.993 50.743 101.276 50.743 102.096 C 55.209 102.509 58.019 102.803 59.173 102.976 ZM 61.782 105.026 L 60.522 104.356 C 61.029 103.083 62.355 100.623 64.502 96.976 C 63.375 95.429 62.089 92.859 60.642 89.266 L 61.932 89.266 C 62.652 90.793 63.872 92.776 65.592 95.216 C 65.885 94.803 66.272 94.166 66.752 93.306 C 67.225 92.446 67.692 91.706 68.152 91.086 C 68.612 90.459 69.135 89.913 69.722 89.446 C 70.422 89.833 70.772 90.289 70.772 90.816 C 70.772 91.109 70.705 91.393 70.572 91.666 C 70.045 92.313 69.372 93.329 68.552 94.716 C 67.732 96.103 67.222 96.943 67.022 97.236 C 69.095 100.129 70.492 102.306 71.212 103.766 C 71.212 104.513 70.882 104.886 70.222 104.886 C 69.555 104.886 69.045 104.563 68.692 103.916 C 68.345 102.743 67.419 101.083 65.912 98.936 C 65.579 99.483 64.899 100.473 63.872 101.906 C 62.852 103.346 62.155 104.386 61.782 105.026 ZM 84.195 101.456 L 84.485 102.746 C 83.625 103.059 82.352 103.406 80.665 103.786 C 78.972 104.166 77.715 104.356 76.895 104.356 C 76.055 104.356 75.325 104.076 74.705 103.516 C 74.078 102.963 73.608 102.249 73.295 101.376 C 72.982 100.509 72.752 99.653 72.605 98.806 C 72.458 97.953 72.385 97.116 72.385 96.296 C 72.385 91.416 74.592 88.976 79.005 88.976 C 80.058 88.976 80.988 89.313 81.795 89.986 C 82.595 90.659 82.995 91.533 82.995 92.606 C 82.995 93.193 82.832 93.709 82.505 94.156 C 82.185 94.609 81.795 94.966 81.335 95.226 C 80.875 95.493 80.288 95.733 79.575 95.946 C 78.862 96.159 78.232 96.316 77.685 96.416 C 77.138 96.516 76.485 96.623 75.725 96.736 C 74.965 96.856 74.438 96.946 74.145 97.006 C 74.165 97.566 74.198 98.063 74.245 98.496 C 74.292 98.923 74.388 99.386 74.535 99.886 C 74.682 100.386 74.878 100.796 75.125 101.116 C 75.372 101.436 75.708 101.706 76.135 101.926 C 76.568 102.139 77.075 102.246 77.655 102.246 C 78.362 102.246 79.222 102.183 80.235 102.056 C 81.255 101.929 82.158 101.796 82.945 101.656 C 83.738 101.523 84.155 101.456 84.195 101.456 Z M 74.265 95.186 C 76.918 94.426 79.095 93.626 80.795 92.786 C 80.655 92.139 80.468 91.669 80.235 91.376 C 80.002 91.083 79.652 90.936 79.185 90.936 C 77.992 90.936 76.912 91.346 75.945 92.166 C 74.978 92.986 74.418 93.993 74.265 95.186 ZM 95.325 93.136 L 94.035 93.046 C 93.621 91.953 92.928 91.406 91.955 91.406 C 91.528 91.406 91.075 91.503 90.595 91.696 C 90.115 91.896 89.718 92.096 89.405 92.296 C 89.091 92.503 88.681 92.803 88.175 93.196 C 88.175 93.469 88.171 94.356 88.165 95.856 C 88.151 97.363 88.161 99.033 88.195 100.866 C 88.221 102.706 88.255 103.693 88.295 103.826 C 88.115 104.413 87.771 104.706 87.265 104.706 C 86.918 104.706 86.581 104.566 86.255 104.286 C 85.935 103.999 85.735 103.653 85.655 103.246 C 86.028 96.973 86.361 92.236 86.655 89.036 L 87.975 89.326 L 88.055 91.286 C 89.421 90.153 90.595 89.586 91.575 89.586 C 92.648 89.586 93.551 89.833 94.285 90.326 C 95.018 90.813 95.385 91.523 95.385 92.456 C 95.385 92.749 95.365 92.976 95.325 93.136 ZM 106.422 89.766 L 106.282 91.026 C 105.462 90.906 104.759 90.846 104.172 90.846 C 102.825 90.846 101.712 91.253 100.832 92.066 C 99.952 92.873 99.352 93.829 99.032 94.936 C 98.705 96.036 98.542 97.263 98.542 98.616 C 98.542 99.236 98.582 99.793 98.662 100.286 C 98.742 100.773 98.885 101.249 99.092 101.716 C 99.292 102.183 99.612 102.549 100.052 102.816 C 100.492 103.083 101.035 103.216 101.682 103.216 C 102.542 103.216 103.635 103.049 104.962 102.716 C 105.369 102.556 105.692 102.476 105.932 102.476 C 106.399 102.476 106.682 103.023 106.782 104.116 C 105.062 104.663 103.469 104.936 102.002 104.936 C 99.875 104.936 98.435 104.416 97.682 103.376 C 96.929 102.329 96.552 100.633 96.552 98.286 C 96.552 96.919 96.645 95.726 96.832 94.706 C 97.019 93.679 97.345 92.719 97.812 91.826 C 98.279 90.939 98.959 90.263 99.852 89.796 C 100.739 89.323 101.825 89.086 103.112 89.086 C 104.559 89.086 105.662 89.313 106.422 89.766 ZM 108.919 89.236 L 110.259 89.526 C 110.419 91.133 110.556 93.649 110.669 97.076 C 110.789 100.503 110.869 102.626 110.909 103.446 C 110.729 104.053 110.386 104.356 109.879 104.356 C 109.533 104.356 109.196 104.213 108.869 103.926 C 108.549 103.646 108.349 103.299 108.269 102.886 C 108.309 102.086 108.389 100.003 108.509 96.636 C 108.623 93.269 108.759 90.803 108.919 89.236 Z M 109.329 83.996 C 109.856 83.996 110.293 84.226 110.639 84.686 C 110.993 85.139 111.169 85.659 111.169 86.246 C 111.169 86.679 111.066 87.026 110.859 87.286 C 110.659 87.553 110.383 87.686 110.029 87.686 C 109.483 87.686 109.053 87.459 108.739 87.006 C 108.426 86.559 108.269 86.033 108.269 85.426 C 108.269 84.999 108.363 84.653 108.549 84.386 C 108.736 84.126 108.996 83.996 109.329 83.996 ZM 122.591 90.176 L 122.301 91.346 C 120.408 90.566 118.935 90.176 117.881 90.176 C 116.941 90.176 116.281 90.316 115.901 90.596 C 115.521 90.883 115.331 91.486 115.331 92.406 C 115.331 93.146 115.598 93.759 116.131 94.246 C 116.671 94.733 117.321 95.119 118.081 95.406 C 118.848 95.686 119.615 95.989 120.381 96.316 C 121.155 96.636 121.811 97.109 122.351 97.736 C 122.885 98.356 123.151 99.126 123.151 100.046 C 123.151 101.299 122.691 102.393 121.771 103.326 C 120.858 104.266 119.668 104.746 118.201 104.766 C 117.128 104.766 116.121 104.539 115.181 104.086 C 114.248 103.639 113.508 103.076 112.961 102.396 L 113.811 101.516 C 114.045 101.609 114.391 101.766 114.851 101.986 C 115.305 102.199 115.631 102.339 115.831 102.406 C 116.025 102.473 116.311 102.546 116.691 102.626 C 117.071 102.706 117.478 102.746 117.911 102.746 C 118.825 102.746 119.575 102.539 120.161 102.126 C 120.748 101.719 121.041 101.143 121.041 100.396 C 121.041 99.909 120.905 99.496 120.631 99.156 C 120.358 98.816 119.998 98.536 119.551 98.316 C 119.098 98.103 118.605 97.899 118.071 97.706 C 117.531 97.513 116.995 97.293 116.461 97.046 C 115.921 96.799 115.428 96.506 114.981 96.166 C 114.528 95.826 114.165 95.363 113.891 94.776 C 113.618 94.189 113.481 93.496 113.481 92.696 C 113.481 91.523 113.801 90.539 114.441 89.746 C 115.075 88.959 115.968 88.566 117.121 88.566 C 117.568 88.566 118.075 88.633 118.641 88.766 C 119.208 88.906 119.658 89.033 119.991 89.146 C 120.325 89.266 120.818 89.456 121.471 89.716 C 122.125 89.983 122.498 90.136 122.591 90.176 ZM 136.747 101.456 L 137.037 102.746 C 136.177 103.059 134.904 103.406 133.217 103.786 C 131.524 104.166 130.267 104.356 129.447 104.356 C 128.607 104.356 127.877 104.076 127.257 103.516 C 126.631 102.963 126.161 102.249 125.847 101.376 C 125.534 100.509 125.304 99.653 125.157 98.806 C 125.011 97.953 124.937 97.116 124.937 96.296 C 124.937 91.416 127.144 88.976 131.557 88.976 C 132.611 88.976 133.541 89.313 134.347 89.986 C 135.147 90.659 135.547 91.533 135.547 92.606 C 135.547 93.193 135.384 93.709 135.057 94.156 C 134.737 94.609 134.347 94.966 133.887 95.226 C 133.427 95.493 132.841 95.733 132.127 95.946 C 131.414 96.159 130.784 96.316 130.237 96.416 C 129.691 96.516 129.037 96.623 128.277 96.736 C 127.517 96.856 126.991 96.946 126.697 97.006 C 126.717 97.566 126.751 98.063 126.797 98.496 C 126.844 98.923 126.941 99.386 127.087 99.886 C 127.234 100.386 127.431 100.796 127.677 101.116 C 127.924 101.436 128.261 101.706 128.687 101.926 C 129.121 102.139 129.627 102.246 130.207 102.246 C 130.914 102.246 131.774 102.183 132.787 102.056 C 133.807 101.929 134.711 101.796 135.497 101.656 C 136.291 101.523 136.707 101.456 136.747 101.456 Z M 126.817 95.186 C 129.471 94.426 131.647 93.626 133.347 92.786 C 133.207 92.139 133.021 91.669 132.787 91.376 C 132.554 91.083 132.204 90.936 131.737 90.936 C 130.544 90.936 129.464 91.346 128.497 92.166 C 127.531 92.986 126.971 93.993 126.817 95.186 Z" transform="matrix(1, 0, 0, 1, 47.93215560913086, -15.5703125)" style="fill: rgb(33, 37, 41); white-space: pre;"/>
  </g>
</svg>